<svg width="170" height="36" viewBox="0 0 170 36" fill="none" xmlns="http://www.w3.org/2000/svg">
<path d="M68.9704 20.9925C68.9704 22.4809 68.44 23.6525 67.3899 24.497C66.329 25.3414 64.835 25.7637 62.9081 25.7637H55.1785V9.77191H62.7998C64.6943 9.77191 66.1233 10.1519 67.0868 10.9225C68.0502 11.6825 68.5374 12.7592 68.5374 14.1419C68.5374 14.7964 68.3642 15.4086 68.0178 15.9786C67.6714 16.5486 67.195 17.0131 66.5996 17.3614V17.5725C67.3466 17.8047 67.9312 18.227 68.3534 18.8392C68.7647 19.462 68.9704 20.1797 68.9704 20.9925ZM64.3262 14.7014C64.3262 14.258 64.1747 13.878 63.8715 13.5719C63.5684 13.2658 63.1787 13.1075 62.7132 13.1075H59.1299V16.2531H62.6266C63.1137 16.2531 63.5251 16.1053 63.8391 15.7992C64.1638 15.4931 64.3262 15.1342 64.3262 14.7014ZM63.0921 19.1242H59.1299V22.4281H62.9297C63.4385 22.4281 63.8607 22.2698 64.1963 21.9531C64.5319 21.6364 64.7051 21.2564 64.7051 20.8025C64.7051 20.3909 64.5536 20.0214 64.2504 19.6836C63.9473 19.3459 63.5684 19.1664 63.0921 19.1242Z" fill="#0275E3"/>
<path d="M81.7663 25.7637H70.4751V9.77191H74.4373V22.4281H81.7663V25.7637Z" fill="#0275E3"/>
<path d="M89.4742 26.1331C87.2874 26.1331 85.5337 25.447 84.2021 24.0642C82.8705 22.692 82.2102 20.9503 82.2102 18.8497V9.77191H86.1724V18.8603C86.1724 19.9053 86.4538 20.7603 87.0168 21.4042C87.5797 22.0481 88.4025 22.3753 89.4742 22.3753C90.5676 22.3753 91.3903 22.0481 91.9424 21.4042C92.4946 20.7603 92.776 19.9053 92.776 18.8603V9.77191H96.7382V18.8603C96.7382 20.9714 96.0779 22.7131 94.7679 24.0853C93.458 25.4576 91.6935 26.1331 89.4742 26.1331Z" fill="#0275E3"/>
<path d="M109.447 16.1475V19.1875H102.779V22.4387H110.736V25.7742H98.8167V9.77191H110.736V13.1075H102.779V16.1475H109.447Z" fill="#0275E3"/>
<path d="M112.176 23.9798L114.33 21.0242C114.514 21.1298 114.752 21.2775 115.055 21.4464C115.358 21.6259 115.91 21.8581 116.712 22.1431C117.513 22.4281 118.238 22.5653 118.898 22.5653C120.1 22.5653 120.706 22.122 120.706 21.2353C120.706 20.8131 120.522 20.4648 120.143 20.2009C119.764 19.937 119.017 19.6414 117.892 19.3248C116.073 18.8075 114.709 18.1742 113.821 17.4247C112.933 16.6647 112.479 15.662 112.479 14.3953C112.479 12.8858 113.009 11.6825 114.081 10.7853C115.142 9.88804 116.722 9.4447 118.823 9.4447C120.132 9.4447 121.302 9.58192 122.33 9.86693C123.359 10.1519 124.051 10.4369 124.419 10.7219L124.993 11.1442L122.861 14.2897C122.731 14.1842 122.547 14.0575 122.308 13.9203C122.07 13.7831 121.605 13.5825 120.901 13.3292C120.197 13.0758 119.505 12.9597 118.812 12.9597C117.632 12.9597 117.036 13.3503 117.036 14.1314C117.036 14.522 117.22 14.8281 117.588 15.0392C117.957 15.2503 118.639 15.5036 119.634 15.7886C121.551 16.3059 122.98 16.9497 123.921 17.7309C124.863 18.512 125.34 19.5464 125.34 20.8237C125.34 22.3648 124.798 23.642 123.727 24.6342C122.655 25.6265 121.085 26.1226 119.028 26.1226C117.675 26.1226 116.441 25.9431 115.293 25.5948C114.157 25.2359 113.345 24.8876 112.879 24.5287L112.176 23.9798Z" fill="#0A162F"/>
<path d="M125.621 13.1075V9.77191H138.818V13.1075H134.195V25.7637H130.233V13.1075H125.621Z" fill="#0A162F"/>
<path d="M155.056 9.77191H162.298C164.16 9.77191 165.676 10.2786 166.845 11.2919C168.025 12.3053 168.61 13.593 168.61 15.1553C168.61 16.2425 168.339 17.1925 167.809 18.0158C167.267 18.8392 166.52 19.4725 165.557 19.8947V20.1903L169.248 25.4892V25.7531H164.734L161.313 20.507H159.018V25.7531H155.056V9.77191ZM164.507 15.1553C164.507 14.4797 164.279 13.973 163.825 13.6247C163.37 13.2764 162.764 13.1075 162.017 13.1075H159.007V17.2347H162.039C162.764 17.2347 163.359 17.0553 163.814 16.6858C164.279 16.3269 164.507 15.8203 164.507 15.1553Z" fill="#0A162F"/>
<path d="M147.446 9.77191H142.953L136.88 25.7637H141.091L142.13 22.882H148.572L149.708 25.7637H153.714L147.446 9.77191ZM147.283 19.8631L145.302 18.4592L143.321 19.8631L144.079 17.5936L142.098 16.1897H144.544L145.302 13.9203L146.06 16.1897H148.507L146.525 17.5936L147.283 19.8631Z" fill="#0A162F"/>
<path d="M14.9394 13.6669L14.9611 0.366852L23.7407 10.553L29.1752 16.8442L37.9548 27.0198L23.719 23.8531L14.9069 35.2004L14.9286 21.9003L14.9394 13.6669Z" fill="#0275E3"/>
<path d="M13.5321 21.2775L0 17.488L13.5104 12.6958L13.5321 21.2775Z" fill="#0275E3"/>
<path d="M29.8246 15.493L37.7057 4.11407L24.1953 8.90633L29.8246 15.493Z" fill="white"/>
<path d="M29.1752 16.8442L23.7407 10.553L14.9611 0.366852L23.719 23.8531L37.9548 27.0198L29.1752 16.8442Z" fill="#0A162F"/>
<path d="M37.7057 4.11407L24.1953 8.90633L29.8246 15.493L37.7057 4.11407Z" fill="#0A162F"/>
</svg>
